<svg
  viewBox="0 0 100 100"
  fill="none"
  xmlns="http://www.w3.org/2000/svg"
  xmlns:xlink="http://www.w3.org/1999/xlink"
>
  <defs>
    <linearGradient id="bronzeGradient" x1="0%" y1="0%" x2="100%" y2="100%">
      <stop offset="0%" style="stop-color: #e6a67c" />
      <stop offset="50%" style="stop-color: #cd7f32" />
      <stop offset="100%" style="stop-color: #8b4513" />
    </linearGradient>
    <linearGradient id="bronzeInner" x1="100%" y1="0%" x2="0%" y2="100%">
      <stop offset="0%" style="stop-color: #8b4513" />
      <stop offset="100%" style="stop-color: #e6a67c" />
    </linearGradient>
  </defs>

  <!-- Shield Base -->
  <path
    d="M50 95C25 85 10 70 10 35L50 10L90 35C90 70 75 85 50 95Z"
    fill="url(#bronzeGradient)"
    stroke="#603010"
    stroke-width="2"
  />
  <path
    d="M50 88C30 79 18 68 18 39L50 19L82 39C82 68 70 79 50 88Z"
    fill="url(#bronzeInner)"
    opacity="0.9"
  />

  <!-- Icon: Single Star (Bronze Level) -->
  <path d="M50 35L54 46H66L56 53L60 64L50 57L40 64L44 53L34 46H46L50 35Z" fill="white" />

  <!-- Label Banner -->
  <rect x="25" y="70" width="50" height="12" rx="2" fill="#603010" />
  <text
    x="50"
    y="79"
    font-family="Arial, sans-serif"
    font-size="7"
    font-weight="bold"
    fill="white"
    text-anchor="middle"
  >
    BRONZE
  </text>
</svg>
