<?xml version="1.0" encoding="utf-8"?>
<svg
  xmlns="http://www.w3.org/2000/svg"
  viewBox="0 0 1064.7 270.9"
  width="1064.7px"
  height="270.9px"
>
  <defs>
    <linearGradient x1="0" y1="1" x2="0" y2="0" id="flaskGradient">
      <stop offset="0" stop-color="#2dbdf2ff" />
      <stop offset="1" stop-color="#007BA7" />
    </linearGradient>
  </defs>
  <g
    transform="matrix(1, 0, 0, 1, -51.710999, -83.402008)"
    style="transform-origin: 51.711px 83.402px"
  >
    <path
      d="M 343.089 305.877 L 235.657 348.915 C 226.801 352.304 216.871 354.304 206.778 354.304 C 196.604 354.304 186.529 352.263 177.624 348.81 L 70.25 305.791 L 70.21 305.768 C 59.727 300.231 52.02 288.632 51.711 276.081 L 51.714 141.579 C 51.878 138.172 53.577 134.44 55.773 132.117 C 58.115 129.956 61.879 128.216 65.408 128.216 C 68.942 128.216 72.825 130.071 75.17 132.235 C 77.385 134.547 78.946 138.309 79.11 141.722 L 79.105 274.835 C 78.969 276.13 79.184 277.104 79.635 277.913 C 80.169 278.736 80.913 279.367 81.935 279.938 L 82.021 279.986 L 82.113 280.023 L 185.041 322.966 C 185.142 322.997 185.404 323.088 185.618 323.165 C 192.221 325.953 199.129 327.368 206.778 327.368 C 214.379 327.368 221.361 325.922 227.94 323.167 C 228.176 323.08 228.189 323.078 228.289 323.048 L 228.38 323.021 L 331.529 279.983 L 331.574 279.958 L 331.608 279.939 C 332.635 279.361 333.388 278.689 333.914 277.851 C 334.395 276.984 334.589 276.004 334.445 274.694 L 334.446 274.708 L 334.449 181.406 C 334.611 178.003 336.312 174.27 338.506 171.948 C 340.843 169.781 344.611 168.051 348.144 168.051 C 351.677 168.051 355.557 169.906 357.903 172.067 C 360.092 174.384 361.677 178.141 361.84 181.547 L 361.84 276.157 C 361.527 288.695 353.7 300.242 343.264 305.797 L 343.183 305.84 L 343.089 305.877 Z M 348.144 155.152 C 344.613 155.152 340.733 153.295 338.387 151.131 C 336.191 148.832 334.447 145.143 334.447 141.681 C 334.447 138.217 336.313 134.422 338.504 132.118 C 340.845 129.957 344.612 128.216 348.144 128.216 C 351.678 128.216 355.557 130.068 357.903 132.231 C 360.097 134.529 361.84 138.216 361.84 141.681 C 361.84 145.137 359.978 148.934 357.789 151.241 C 355.456 153.424 351.686 155.152 348.144 155.152 Z M 250.187 297.456 L 249.515 297.564 C 248.782 297.682 248.109 297.742 247.442 297.742 C 243.84 297.742 239.892 295.863 237.497 293.652 C 235.24 291.31 233.469 287.553 233.469 284.01 C 233.469 281.263 234.627 278.172 236.044 276.086 C 237.578 274.049 239.985 272.232 242.353 271.242 L 290.778 250.345 C 291.961 249.774 292.764 249.086 293.354 248.173 C 293.945 247.218 294.174 246.129 294.056 244.792 L 294.059 112.188 L 286.528 115.566 L 286.49 115.481 L 285.671 115.834 L 223.782 142.546 C 222.583 143.128 221.835 143.793 221.249 144.756 C 220.636 145.75 220.393 146.823 220.485 148.122 L 220.485 286.118 C 220.324 292.296 217.522 298.527 213.491 302.643 C 209.324 306.623 203.001 309.489 196.68 309.489 C 193.501 309.489 190.152 308.748 187.407 307.635 L 112.756 276.961 C 106.882 274.424 101.459 269.99 97.867 264.852 C 94.378 259.662 92.195 252.934 92.106 246.23 L 92.106 106.773 C 92.265 100.595 95.067 94.364 99.096 90.248 C 103.261 86.261 109.582 83.402 115.901 83.402 C 119.036 83.402 122.35 84.136 125.059 85.222 L 171.472 104.288 C 173.79 105.334 176.21 107.324 177.692 109.358 C 179.053 111.441 180.085 114.39 180.085 117.098 C 180.085 120.69 178.17 124.602 175.894 126.993 C 173.474 129.249 169.583 131.035 165.92 131.035 C 163.64 131.035 161.233 130.304 159.481 129.463 L 124.596 114.411 L 124.569 114.485 L 122.746 113.658 L 119.501 112.182 L 119.493 245.007 C 119.391 246.386 119.676 247.389 120.24 248.266 C 120.835 249.158 121.638 249.803 122.816 250.359 L 188.159 278.553 L 188.197 278.456 L 187.325 278.049 L 189.06 278.858 L 189.923 279.259 L 193.083 280.737 L 193.083 146.631 C 193.175 139.918 195.388 133.176 198.881 127.98 C 202.478 122.837 207.941 118.422 213.826 115.895 L 288.516 85.211 C 291.229 84.127 294.519 83.402 297.657 83.402 C 303.975 83.402 310.361 86.337 314.533 90.312 C 318.57 94.424 321.301 100.673 321.46 106.853 L 321.46 246.273 C 321.37 252.985 319.142 259.728 315.638 264.927 C 312.031 270.07 306.568 274.488 300.685 277.019 L 250.916 297.47 L 250.858 297.349 L 250.187 297.456 Z M 124.569 114.485 L 123.957 116.191 L 124.761 116.504 L 125.474 114.894 L 124.569 114.485 Z M 121.285 245.147 L 121.293 245.094 L 119.513 244.831 L 119.507 244.87 C 119.507 244.874 119.5 244.925 119.5 244.931 L 121.285 245.147 Z M 188.197 278.456 L 188.858 276.818 L 187.228 276.059 L 186.45 277.641 L 188.197 278.456 Z"
      style="stroke-width: 1"
      fill="url(#flaskGradient)"
    />
    <path
      d="M 1088.08 157.381 C 1096.4 157.788 1103.51 160.024 1108.07 163.665 C 1112.58 167.613 1115.36 173.891 1115.36 180.835 C 1115.36 189.33 1111.9 196.75 1106.22 201.311 C 1100.5 205.525 1091.71 207.819 1081.14 207.881 L 1073.58 207.881 C 1074.05 208.511 1074.58 209.118 1075.17 209.708 C 1078.48 213.414 1082.2 214.785 1087.9 214.785 C 1093.14 214.785 1096.66 213.854 1099.65 211.359 L 1102.41 209.187 L 1116.41 222.948 L 1113.78 225.06 L 1112.9 225.768 C 1105.96 231.249 1097.21 234.377 1087.9 234.377 C 1076.72 234.377 1066.9 230.611 1059.97 223.97 C 1053.23 217.156 1049.4 207.747 1049.4 197.257 C 1049.4 185.733 1053.11 175.55 1059.71 168.183 C 1066.6 160.916 1076.65 157.14 1088.08 157.381 Z M 1071.48 189.255 L 1082.12 189.255 C 1087.86 189.3 1090.87 188.737 1092.46 187.295 L 1092.5 187.253 L 1092.54 187.229 C 1094.2 186.226 1094.53 184.731 1094.53 180.973 C 1094.53 178.936 1094.5 178.514 1093.18 177.908 L 1093.14 177.891 L 1093.09 177.849 C 1091.6 176.739 1090.04 176.417 1087.21 176.417 C 1081.49 176.417 1077.93 177.867 1074.92 181.847 C 1071.57 185.833 1070.24 190.068 1070.24 195.877 C 1070.24 199.082 1070.62 201.743 1071.48 204.06 L 1071.48 189.255 Z M 1004.14 232.997 C 994.391 232.997 985.251 229.288 978.205 222.79 C 971.267 216.071 967.3 206.813 967.3 196.567 C 967.3 186.251 971.191 176.724 978.201 169.658 C 985.275 162.642 994.814 158.898 1005.11 158.757 L 1041.54 158.757 L 1041.54 227.071 C 1041.52 231.488 1040.9 235.832 1039.76 239.467 C 1038.57 243.111 1036.7 246.602 1034.53 249.235 C 1032.5 251.645 1030.49 253.7 1028.76 255.133 C 1027.08 256.514 1024.68 258.169 1022.39 259.607 C 1016.19 262.726 1008.33 264.417 999.728 264.461 L 980.272 264.461 L 980.272 244.869 L 998.492 244.869 C 1006.25 244.898 1011.15 244.064 1013.85 242.307 C 1019.17 239.691 1021.27 235.747 1021.13 228.888 L 1022.61 228.072 L 1022.08 228.362 C 1021.77 228.532 1021.45 228.698 1021.13 228.86 C 1021.13 228.723 1021.13 228.584 1021.12 228.445 L 1021.12 228.865 C 1015.92 231.495 1009.99 232.997 1004.14 232.997 Z M 1021.12 178.349 L 1005.09 178.349 C 999.309 178.211 995.59 179.65 992.416 183.174 C 989.032 186.526 987.72 190.514 987.72 196.567 C 987.72 202.29 988.985 205.874 992.438 208.879 C 995.805 212.167 999.244 213.405 1004.14 213.405 C 1009.64 213.405 1013.8 212.217 1017.79 209.205 L 1021.12 206.787 L 1021.12 178.349 Z M 923.662 232.997 C 912.916 232.86 903.308 229.079 896.387 222.193 C 889.674 215.163 885.872 205.668 885.872 195.187 C 885.872 184.865 889.833 175.382 896.781 168.27 C 903.87 161.334 913.011 157.377 922.716 157.377 C 928.929 157.377 935.237 159.076 940.662 162.018 L 939.692 161.482 L 939.692 128.397 L 960.112 128.397 L 960.112 232.997 L 923.662 232.997 Z M 939.548 183.483 L 936.372 181.173 C 932.374 178.16 928.21 176.969 922.716 176.969 C 917.988 176.969 914.807 178.247 911.64 181.832 C 908.287 185.24 906.982 189.222 906.982 195.187 C 906.982 201.275 908.221 205.298 911.405 208.656 C 914.323 212.138 917.892 213.548 923.664 213.405 L 939.692 213.405 L 939.692 183.588 L 939.548 183.483 Z M 856.609 178.349 L 824.52 178.349 C 822.744 178.349 821.468 178.389 820.575 178.474 C 819.925 178.509 819.272 178.704 818.108 179.178 C 817.163 179.513 816.722 179.846 816.104 180.675 C 814.806 181.931 814.413 185.052 814.444 191.323 L 814.444 232.997 L 794.3 232.997 L 794.3 191.313 C 794.373 180.2 796.928 171.487 801.359 166.6 C 803.636 164.292 806.735 162.271 809.898 161.071 C 812.866 159.992 815.796 159.277 818.163 159.049 C 820.344 158.856 823.352 158.757 827.004 158.757 L 843.148 158.757 L 843.148 177.948 L 852.289 158.757 L 876.753 158.757 L 876.753 232.997 L 856.609 232.997 L 856.609 178.349 Z M 856.844 151.338 C 855.376 149.272 854.263 146.379 854.263 143.851 C 854.263 141.325 855.447 138.324 856.961 136.283 C 858.862 134.155 862.301 132.537 865.577 132.537 C 868.855 132.537 872.361 134.237 874.259 136.365 C 875.774 138.408 876.891 141.327 876.891 143.851 C 876.891 146.377 875.707 149.378 874.193 151.419 C 872.292 153.547 868.853 155.165 865.577 155.165 C 862.273 155.165 858.802 153.413 856.922 151.433 L 856.881 151.39 L 856.844 151.338 Z M 714.527 163.15 C 714.666 152.952 718.311 143.759 724.917 137.118 C 731.66 130.687 740.648 127.017 750.405 127.017 C 760.986 127.017 769.931 130.196 775.669 135.721 C 781.139 141.353 784.351 148.931 784.351 156.961 C 784.351 166.75 781.016 171.933 775.46 176.521 C 778.664 178.222 780.842 179.714 783.986 183.926 C 787.274 188.643 789.181 195.149 789.181 202.225 C 789.181 211.892 785.712 220.176 779.852 225.368 C 773.873 230.257 764.653 232.921 753.579 232.997 L 714.527 232.997 L 714.527 163.15 Z M 753.45 212.853 C 759.26 212.925 762.565 212.087 764.737 209.986 C 767.038 208.248 767.795 205.633 767.795 200.569 C 767.795 196.344 767.028 194.1 764.479 192.19 C 761.985 189.943 758.967 189.023 754.145 189.113 L 736.469 189.113 L 736.469 169.659 L 749.316 169.659 C 753.654 169.755 756.682 168.782 759.632 166.413 C 762.53 164.409 763.379 162.369 763.379 158.617 C 763.379 154.878 762.633 152.571 760.371 150.292 C 758.492 147.96 755.593 147.161 750.129 147.161 C 745.31 147.161 742.232 148.217 739.419 151.178 C 736.459 153.882 735.25 157.477 735.361 163.433 L 735.361 212.853 L 753.45 212.853 Z M 653.299 157.381 C 661.615 157.788 668.724 160.024 673.293 163.665 C 677.795 167.613 680.583 173.891 680.583 180.835 C 680.583 189.33 677.118 196.75 671.439 201.311 C 665.716 205.525 656.926 207.819 646.361 207.881 L 638.795 207.881 C 639.268 208.511 639.797 209.118 640.385 209.708 C 643.695 213.414 647.422 214.785 653.123 214.785 C 658.364 214.785 661.879 213.854 664.869 211.359 L 667.631 209.187 L 681.625 222.948 L 679 225.06 L 678.121 225.768 C 671.181 231.249 662.43 234.377 653.123 234.377 C 641.937 234.377 632.115 230.611 625.19 223.97 C 618.453 217.156 614.623 207.747 614.623 197.257 C 614.623 185.733 618.333 175.55 624.933 168.183 C 631.824 160.916 641.867 157.14 653.299 157.381 Z M 636.703 189.255 L 647.339 189.255 C 653.077 189.3 656.093 188.737 657.674 187.295 L 657.721 187.253 L 657.761 187.229 C 659.421 186.226 659.749 184.731 659.749 180.973 C 659.749 178.936 659.722 178.514 658.398 177.908 L 658.362 177.891 L 658.306 177.849 C 656.822 176.739 655.258 176.417 652.433 176.417 C 646.704 176.417 643.151 177.867 640.144 181.847 C 636.792 185.833 635.457 190.068 635.457 195.877 C 635.457 199.082 635.837 201.743 636.703 204.06 L 636.703 189.255 Z M 578.854 232.997 C 568.228 232.953 559.769 231.071 554.653 227.739 C 550.253 224.656 546.918 220.352 545.548 215.939 C 544.42 211.887 543.822 206.44 543.81 200.155 L 543.81 158.757 L 563.954 158.757 L 563.954 200.017 C 563.954 201.608 563.995 202.867 564.081 203.922 C 564.136 204.793 564.377 205.846 564.886 207.482 C 565.3 208.919 565.71 209.687 566.434 210.447 C 567.064 211.238 567.865 211.747 569.489 212.459 C 570.959 213.171 572.475 213.439 574.858 213.405 L 586.59 213.405 L 586.59 158.757 L 606.734 158.757 L 606.734 232.997 L 578.854 232.997 Z M 505.845 202.777 L 505.845 128.397 L 526.265 128.397 L 526.265 202.787 C 526.245 205.807 526.534 207.832 527.194 209.478 C 527.673 210.96 527.985 211.348 528.969 211.733 C 530.366 212.486 531.4 212.859 532.627 213.053 C 533.972 213.3 535.692 213.409 538.135 213.405 L 542.135 213.405 L 542.135 233.005 L 539.129 232.999 L 538.125 232.997 C 527.297 232.926 518.582 230.428 513.524 225.978 C 508.666 221.221 505.94 212.946 505.845 202.777 Z M 424.002 163.15 C 424.141 152.952 427.786 143.759 434.392 137.118 C 441.135 130.687 450.123 127.017 459.88 127.017 C 470.461 127.017 479.406 130.196 485.144 135.721 C 490.614 141.353 493.826 148.931 493.826 156.961 C 493.826 166.75 490.491 171.933 484.935 176.521 C 488.139 178.222 490.317 179.714 493.461 183.926 C 496.749 188.643 498.656 195.149 498.656 202.225 C 498.656 211.892 495.187 220.176 489.327 225.368 C 483.348 230.257 474.128 232.921 463.054 232.997 L 424.002 232.997 L 424.002 163.15 Z M 462.925 212.853 C 468.735 212.925 472.04 212.087 474.212 209.986 C 476.513 208.248 477.27 205.633 477.27 200.569 C 477.27 196.344 476.503 194.1 473.954 192.19 C 471.46 189.943 468.442 189.023 463.62 189.113 L 445.944 189.113 L 445.944 169.659 L 458.791 169.659 C 463.129 169.755 466.157 168.782 469.107 166.413 C 472.005 164.409 472.854 162.369 472.854 158.617 C 472.854 154.878 472.108 152.571 469.846 150.292 C 467.967 147.96 465.068 147.161 459.604 147.161 C 454.785 147.161 451.707 148.217 448.894 151.178 C 445.934 153.882 444.725 157.477 444.836 163.433 L 444.836 212.853 L 462.925 212.853 Z"
      style="
        fill: rgb(63, 62, 62);
        paint-order: stroke;
        stroke-dashoffset: -6px;
        stroke-miterlimit: 1;
        stroke-width: 0;
      "
    />
    <path
      d="M 914.657 262.965 L 926.632 289.689 L 938.213 262.965 L 944.436 262.965 L 922.5 313.064 L 916.347 313.064 L 923.496 296.688 L 908.502 262.965 L 914.657 262.965 Z M 902.551 274.06 L 902.227 273.625 C 899.181 269.53 895.093 267.585 889.725 267.585 C 885.506 267.585 882.083 268.868 879.252 271.573 C 876.393 274.241 875.044 277.457 875.044 281.435 C 875.044 285.418 876.394 288.704 879.2 291.548 C 882 294.388 885.421 295.758 889.725 295.758 C 894.867 295.758 898.963 293.806 902.24 289.703 L 902.576 289.282 L 907.176 292.344 L 906.834 292.836 C 904.977 295.505 902.436 297.607 899.33 299.043 C 896.228 300.457 892.827 301.188 889.253 301.188 C 883.604 301.188 878.768 299.261 874.953 295.554 C 871.171 291.813 869.202 287.149 869.202 281.773 C 869.202 276.397 871.176 271.663 875.017 267.827 C 878.863 263.987 883.92 262.02 889.928 262.02 C 893.464 262.02 896.806 262.802 899.823 264.31 C 902.839 265.839 905.222 267.997 906.853 270.672 L 907.154 271.166 L 902.551 274.06 Z M 832.165 262.965 L 832.165 268.304 C 835.759 264.177 839.609 262.02 845.021 262.02 C 847.809 262.02 850.407 262.815 852.65 264.315 C 854.877 265.836 856.519 267.887 857.465 270.328 C 858.383 272.757 858.853 276.337 858.856 280.963 L 858.856 299.973 L 853.08 299.973 L 853.08 282.313 C 853.081 278.149 852.899 275.389 852.525 273.957 C 852.16 272.524 851.625 271.369 850.869 270.389 C 850.134 269.408 849.246 268.711 848.093 268.209 C 846.943 267.689 845.588 267.45 843.906 267.45 C 842.244 267.45 840.682 267.842 839.074 268.667 C 837.466 269.491 836.143 270.594 835.016 272.076 C 833.875 273.559 833.139 275.026 832.755 276.585 C 832.358 278.152 832.164 281.341 832.165 286.226 L 832.165 299.973 L 826.322 299.973 L 826.322 262.965 L 832.165 262.965 Z M 817.214 289.556 L 816.928 290.082 C 812.951 297.389 806.97 301.188 799.245 301.188 C 793.725 301.188 789.033 299.235 785.436 295.437 C 781.847 291.645 780.005 286.964 780.005 281.638 C 780.005 276.312 781.874 271.633 785.47 267.805 C 789.105 264.003 793.689 262.02 799.008 262.02 C 804.32 262.02 808.896 263.857 812.53 267.385 C 816.134 270.952 818.059 275.879 818.214 281.962 L 818.229 282.564 L 785.94 282.564 C 786.157 286.494 787.308 289.455 789.834 291.987 C 792.328 294.553 795.259 295.758 798.839 295.758 C 804.764 295.758 809.052 293.104 811.967 287.503 L 812.236 286.984 L 817.214 289.556 Z M 811.768 277.405 C 811.098 274.429 809.834 272.299 807.399 270.432 C 804.952 268.556 802.237 267.652 799.042 267.652 C 795.755 267.652 793.163 268.497 791.039 270.25 C 788.908 272.009 787.592 274.217 786.589 277.405 L 811.768 277.405 Z M 772.769 262.965 L 772.769 291.219 C 772.767 296.157 772.328 299.862 771.448 302.221 C 770.57 304.575 769.25 306.596 767.584 308.18 C 765.911 309.748 763.847 310.981 761.496 311.815 C 759.147 312.639 756.527 313.064 753.732 313.064 C 748.978 313.064 744.933 312.092 741.77 310.179 C 738.6 308.26 736.201 305.302 734.669 301.491 L 734.345 300.684 L 740.568 300.684 L 740.733 300.987 C 743.226 305.548 747.405 307.702 753.53 307.702 C 756.483 307.702 758.97 307.158 761.127 306.015 C 763.291 304.893 764.742 303.525 765.605 301.783 C 766.492 300.063 766.923 297.383 766.927 293.614 L 766.927 293.628 L 767.966 292.343 C 767.632 292.756 767.285 293.152 766.927 293.53 C 765.256 295.294 763.33 296.68 761.203 297.628 C 758.624 298.778 755.843 299.366 752.988 299.366 C 747.651 299.366 743.093 297.478 739.525 293.857 C 735.995 290.211 734.154 285.822 734.154 280.896 C 734.154 275.786 736.099 271.263 739.873 267.586 C 743.648 263.909 748.34 262.02 753.698 262.02 C 759.082 262.02 763.095 264.136 766.927 268.209 L 766.927 262.965 L 772.769 262.965 Z M 767.129 280.896 C 767.129 277.092 765.892 274.033 763.315 271.461 C 760.739 268.888 757.676 267.652 753.867 267.652 C 749.836 267.652 746.603 268.967 743.954 271.756 C 741.266 274.522 739.997 277.591 739.997 281.166 C 739.997 284.739 741.213 287.666 743.806 290.156 C 746.362 292.679 749.558 293.869 753.597 293.869 C 757.638 293.869 760.824 292.71 763.358 290.254 C 765.924 287.838 767.129 284.789 767.129 280.896 Z M 729.541 299.973 L 723.049 299.973 L 715.413 283.442 L 695.223 283.442 L 687.655 299.973 L 680.955 299.973 L 704.397 248.39 L 706.375 248.39 L 729.541 299.973 Z M 705.383 261.134 L 697.991 277.337 L 712.714 277.337 L 705.383 261.134 Z M 632.253 262.965 L 644.228 289.689 L 655.809 262.965 L 662.031 262.965 L 640.095 313.064 L 633.943 313.064 L 641.092 296.688 L 626.098 262.965 L 632.253 262.965 Z M 613.375 262.965 L 613.375 266.743 C 614.294 265.424 614.855 264.674 616.091 263.641 C 617.37 262.601 618.888 262.02 620.455 262.02 C 621.997 262.02 623.614 262.472 625.163 263.307 L 625.713 263.603 L 622.639 268.548 L 622.145 268.243 C 621.539 267.869 620.992 267.72 620.354 267.72 C 619.099 267.72 618.019 268.313 616.848 269.674 C 615.658 271.057 614.806 272.789 614.235 275.003 C 613.663 277.223 613.375 281.276 613.375 287.238 L 613.375 299.973 L 607.465 299.973 L 607.465 262.965 L 613.375 262.965 Z M 599.293 299.973 L 593.585 299.973 L 593.585 294.795 C 589.632 298.999 585.528 301.188 580.121 301.188 C 574.735 301.188 570.075 299.197 566.351 295.374 C 562.664 291.523 560.746 286.843 560.746 281.537 C 560.746 276.229 562.676 271.57 566.388 267.763 C 570.132 263.988 574.712 262.02 579.918 262.02 C 585.911 262.02 589.975 264.206 593.585 268.411 L 593.585 262.965 L 599.293 262.965 L 599.293 299.973 Z M 593.856 281.638 C 593.856 277.653 592.57 274.422 589.902 271.692 C 587.234 268.963 584.095 267.652 580.222 267.652 C 576.352 267.652 573.217 269.003 570.549 271.82 C 567.876 274.643 566.589 277.856 566.589 281.705 C 566.589 285.553 567.881 288.779 570.613 291.587 C 573.311 294.423 576.443 295.758 580.222 295.758 C 584.005 295.758 587.141 294.473 589.839 291.747 C 592.566 289.058 593.856 285.758 593.856 281.638 Z M 545.476 262.965 L 545.476 266.742 C 546.394 265.423 546.955 264.674 548.191 263.641 C 549.471 262.601 550.988 262.02 552.555 262.02 C 554.097 262.02 555.714 262.472 557.264 263.307 L 557.813 263.603 L 554.739 268.548 L 554.245 268.243 C 553.639 267.869 553.092 267.72 552.454 267.72 C 551.199 267.72 550.12 268.313 548.948 269.674 C 547.758 271.057 546.901 272.788 546.335 275.003 C 545.759 277.222 545.476 281.276 545.476 287.238 L 545.476 299.973 L 539.566 299.973 L 539.566 262.965 L 545.476 262.965 Z M 532.214 289.556 L 531.928 290.082 C 527.951 297.389 521.97 301.188 514.245 301.188 C 508.726 301.188 504.033 299.235 500.437 295.437 C 496.847 291.645 495.005 286.964 495.005 281.638 C 495.005 276.312 496.875 271.633 500.47 267.805 C 504.105 264.003 508.69 262.02 514.009 262.02 C 519.321 262.02 523.897 263.857 527.53 267.385 C 531.135 270.952 533.059 275.879 533.214 281.962 L 533.23 282.564 L 500.94 282.564 C 501.157 286.494 502.325 289.438 504.834 291.987 C 507.344 294.537 510.259 295.758 513.839 295.758 C 519.764 295.758 524.053 293.104 526.967 287.503 L 527.237 286.984 L 532.214 289.556 Z M 526.768 277.405 C 526.099 274.429 524.835 272.299 522.4 270.432 C 519.953 268.556 517.238 267.652 514.042 267.652 C 510.756 267.652 508.163 268.497 506.04 270.25 C 503.909 272.009 502.593 274.217 501.59 277.405 L 526.768 277.405 Z M 482.979 293.716 C 482.972 294.867 483.007 295.348 483.205 295.396 C 483.39 295.569 484.029 295.626 485.295 295.623 L 488.655 295.623 L 488.655 300.626 L 488.162 300.707 C 486.253 301.024 484.718 301.188 483.606 301.188 C 481.486 301.188 479.761 300.61 478.72 299.521 C 477.682 298.435 477.15 296.659 477.137 294.458 L 477.137 268.057 L 470.785 268.057 L 470.785 262.965 L 477.137 262.965 L 477.137 249.132 L 482.979 249.132 L 482.979 262.965 L 490.277 262.965 L 490.277 268.057 L 482.979 268.057 L 482.979 293.716 Z M 456.697 253.568 C 456.697 252.421 457.174 251.316 457.978 250.459 C 458.818 249.628 459.93 249.132 461.105 249.132 C 462.276 249.132 463.401 249.596 464.225 250.418 C 465.048 251.24 465.512 252.364 465.512 253.534 C 465.512 254.703 465.032 255.811 464.225 256.65 C 463.385 257.456 462.276 257.936 461.105 257.936 C 459.93 257.936 458.818 257.441 457.978 256.61 C 457.175 255.755 456.697 254.672 456.697 253.568 Z M 464.026 262.965 L 464.026 299.973 L 458.184 299.973 L 458.184 262.965 L 464.026 262.965 Z M 433.793 250.347 L 433.793 294.139 L 452.443 294.139 L 452.443 299.973 L 427.681 299.973 L 427.681 250.347 L 433.793 250.347 Z"
      style="fill: rgb(11, 140, 186); stroke-width: 1"
    />
  </g>
</svg>
